<svg width="236" height="236" viewBox="0 0 236 236" fill="none" xmlns="http://www.w3.org/2000/svg">
<path fill-rule="evenodd" clip-rule="evenodd" d="M118 236C52.8304 236 -1.63317e-05 183.17 -1.63317e-05 118C-1.63317e-05 52.8304 52.8304 0 118 0C183.17 0 236 52.8304 236 118C236 183.17 183.17 236 118 236Z" fill="black"/>
<path fill-rule="evenodd" clip-rule="evenodd" d="M118 42.873L88.0279 89.6124L118 136.486L147.972 89.6124L118 42.873Z" fill="white"/>
<path d="M23.2068 118.031C23.2068 118.021 23.2068 118.01 23.2068 118H23.2076C23.2288 115.52 25.245 113.516 27.7301 113.516C30.2152 113.516 32.2314 115.52 32.2527 118H32.2535C32.2535 165.356 70.6436 203.746 118 203.746C165.357 203.746 203.747 165.356 203.747 118H203.748C203.769 115.52 205.785 113.516 208.27 113.516C210.755 113.516 212.771 115.52 212.793 118H212.793C212.793 118.01 212.793 118.021 212.793 118.031C212.793 118.033 212.793 118.037 212.793 118.039C212.793 118.044 212.793 118.048 212.793 118.052C212.765 170.381 170.335 212.793 118 212.793C65.6648 212.793 23.2351 170.381 23.2068 118.052C23.2068 118.048 23.2068 118.044 23.2068 118.039C23.2068 118.037 23.2068 118.033 23.2068 118.031Z" fill="white"/>
</svg>
