<svg width="237" height="236" viewBox="0 0 237 236" fill="none" xmlns="http://www.w3.org/2000/svg">
<path fill-rule="evenodd" clip-rule="evenodd" d="M118.5 236C53.0542 236 -1.09076e-05 183.17 -1.09076e-05 118C-1.09076e-05 52.8304 53.0542 0 118.5 0C183.946 0 237 52.8304 237 118C237 183.17 183.946 236 118.5 236Z" fill="#00FF29"/>
<path fill-rule="evenodd" clip-rule="evenodd" d="M118.5 42.873L88.4011 89.6124L118.5 136.486L148.599 89.6124L118.5 42.873Z" fill="white"/>
<path d="M23.3051 118.031C23.3051 118.021 23.3051 118.01 23.3051 118H23.3059C23.3272 115.52 25.352 113.516 27.8476 113.516C30.3432 113.516 32.368 115.52 32.3893 118H32.3901C32.3901 165.356 70.9429 203.746 118.5 203.746C166.057 203.746 204.61 165.356 204.61 118H204.611C204.632 115.52 206.657 113.516 209.153 113.516C211.648 113.516 213.673 115.52 213.694 118H213.695C213.695 118.01 213.695 118.021 213.695 118.031C213.695 118.033 213.695 118.037 213.695 118.039C213.695 118.044 213.695 118.048 213.695 118.052C213.667 170.381 171.057 212.793 118.5 212.793C65.943 212.793 23.3335 170.381 23.3051 118.052C23.3051 118.048 23.3051 118.044 23.3051 118.039C23.3051 118.037 23.3051 118.033 23.3051 118.031Z" fill="white"/>
</svg>
