<svg width="45" height="45" viewBox="0 0 45 45" fill="none" xmlns="http://www.w3.org/2000/svg">
<path fill-rule="evenodd" clip-rule="evenodd" d="M22.5 45C10.0736 45 1.00583e-06 34.9264 1.00583e-06 22.5C1.00583e-06 10.0736 10.0736 0 22.5 0C34.9264 0 45 10.0736 45 22.5C45 34.9264 34.9264 45 22.5 45Z" fill="black"/>
<path fill-rule="evenodd" clip-rule="evenodd" d="M22.5001 8.17505L16.7851 17.0872L22.5001 26.025L28.2151 17.0872L22.5001 8.17505Z" fill="white"/>
<path d="M4.42495 22.506C4.42495 22.5041 4.42495 22.502 4.42495 22.5H4.4251C4.42915 22.0272 4.8136 21.645 5.28745 21.645C5.7613 21.645 6.14575 22.0272 6.1498 22.5H6.14995C6.14995 31.5299 13.4701 38.85 22.5 38.85C31.5298 38.85 38.85 31.5299 38.85 22.5H38.8501C38.8542 22.0272 39.2386 21.645 39.7125 21.645C40.1863 21.645 40.5708 22.0272 40.5748 22.5H40.575C40.575 22.502 40.575 22.5041 40.575 22.506C40.575 22.5065 40.575 22.5071 40.575 22.5075C40.575 22.5084 40.575 22.5092 40.575 22.5101C40.5696 32.4879 32.4792 40.575 22.5 40.575C12.5207 40.575 4.43035 32.4879 4.42495 22.5101C4.42495 22.5092 4.42495 22.5084 4.42495 22.5075C4.42495 22.5071 4.42495 22.5065 4.42495 22.506Z" fill="white"/>
</svg>
