<svg width="15" height="16" viewBox="0 0 15 16" fill="none" xmlns="http://www.w3.org/2000/svg">
<g clip-path="url(#clip0)">
<path fill-rule="evenodd" clip-rule="evenodd" d="M7.40824 15.5214C3.31683 15.5214 8.10623e-05 12.2047 8.10623e-05 8.11324C8.10623e-05 4.02183 3.31683 0.705078 7.40824 0.705078C11.4997 0.705078 14.8164 4.02183 14.8164 8.11324C14.8164 12.2047 11.4997 15.5214 7.40824 15.5214Z" fill="black"/>
<path d="M1.45693 8.11527C1.45693 8.11463 1.45693 8.11394 1.45693 8.1133H1.45698C1.45831 7.95763 1.58489 7.83179 1.74091 7.83179C1.89692 7.83179 2.0235 7.95763 2.02484 8.1133H2.02489C2.02489 11.0864 4.43506 13.4966 7.40815 13.4966C10.3812 13.4966 12.7914 11.0864 12.7914 8.1133H12.7915C12.7928 7.95763 12.9194 7.83179 13.0754 7.83179C13.2314 7.83179 13.358 7.95763 13.3593 8.1133H13.3594C13.3594 8.11394 13.3594 8.11463 13.3594 8.11527C13.3594 8.11542 13.3594 8.11562 13.3594 8.11577C13.3594 8.11606 13.3594 8.11631 13.3594 8.11661C13.3576 11.4018 10.6938 14.0645 7.40815 14.0645C4.12248 14.0645 1.4587 11.4018 1.45693 8.11661C1.45693 8.11631 1.45693 8.11606 1.45693 8.11577C1.45693 8.11562 1.45693 8.11542 1.45693 8.11527Z" fill="white"/>
</g>
<defs>
<clipPath id="clip0">
<path d="M14.8164 0.705078L8.10623e-05 0.705078L8.10623e-05 15.5214L14.8164 15.5214L14.8164 0.705078Z" fill="white"/>
</clipPath>
</defs>
</svg>
