<svg width="129" height="91" viewBox="0 0 129 91" fill="none" xmlns="http://www.w3.org/2000/svg">
<g clip-path="url(#clip0)">
<path fill-rule="evenodd" clip-rule="evenodd" d="M55.3999 66.0542C25.1296 52.5718 4.68931 32.44 9.74522 21.0887C14.8011 9.73732 43.4387 11.4649 73.709 24.9473C103.979 38.4297 124.42 58.5615 119.364 69.9128C114.308 81.2642 85.6702 79.5366 55.3999 66.0542Z" fill="black"/>
<path fill-rule="evenodd" clip-rule="evenodd" d="M70.3828 32.4146L52.8352 34.355L63.1202 48.7203L80.6783 46.7564L70.3828 32.4146Z" fill="white"/>
<path d="M20.5219 25.8955C20.5227 25.8937 20.5236 25.8918 20.5244 25.89L20.5247 25.8902C20.727 25.4627 21.819 25.5307 22.9732 26.0448C24.1275 26.5589 24.9085 27.3252 24.726 27.7614L24.7264 27.7616C21.0524 36.0103 35.9057 50.6393 57.9021 60.4366C79.8985 70.2338 100.709 71.4891 104.382 63.2405L104.383 63.2407C104.585 62.8132 105.677 62.8811 106.831 63.3953C107.986 63.9094 108.767 64.6756 108.584 65.1119L108.585 65.1121C108.584 65.1139 108.583 65.1158 108.582 65.1176C108.582 65.118 108.582 65.1185 108.581 65.1189C108.581 65.1198 108.581 65.1204 108.58 65.1213C104.508 74.23 81.5093 72.8396 57.2003 62.0123C32.8913 51.1851 16.4738 35.0197 20.5203 25.8992C20.5206 25.8984 20.5209 25.8977 20.5213 25.8969C20.5215 25.8965 20.5217 25.8959 20.5219 25.8955Z" fill="white"/>
</g>
<defs>
<clipPath id="clip0">
<path d="M128.518 49.3594L18.8997 0.535221L0.590689 41.6421L110.209 90.4663L128.518 49.3594Z" fill="white"/>
</clipPath>
</defs>
</svg>
