<svg width="38" height="38" viewBox="0 0 38 38" fill="none" xmlns="http://www.w3.org/2000/svg">
<circle cx="25.6561" cy="9.21856" r="1.51361" fill="black" stroke="black" stroke-width="1.40991"/>
<path d="M11.7322 18.9998C11.7322 19.8358 11.0545 20.5134 10.2186 20.5134C9.38262 20.5134 8.70495 19.8358 8.70495 18.9998C8.70495 18.1639 9.38262 17.4862 10.2186 17.4862C11.0545 17.4862 11.7322 18.1639 11.7322 18.9998Z" fill="black" stroke="black" stroke-width="1.40991"/>
<circle cx="25.6561" cy="28.7815" r="1.51361" fill="black" stroke="black" stroke-width="1.40991"/>
<path d="M10 19.0005L9.54962 18.2796C9.30104 18.4349 9.15001 18.7074 9.15 19.0005C9.14999 19.2936 9.301 19.566 9.54958 19.7213L10 19.0005ZM25.2054 8.49836L9.54962 18.2796L10.4504 19.7214L26.1062 9.94011L25.2054 8.49836ZM9.54958 19.7213L25.2054 29.5038L26.1062 28.0621L10.4504 18.2796L9.54958 19.7213Z" fill="black"/>
</svg>
